<?xml version="1.0" encoding="UTF-8" standalone="no"?>
<svg
   xmlns:dc="http://purl.org/dc/elements/1.1/"
   xmlns:cc="http://creativecommons.org/ns#"
   xmlns:rdf="http://www.w3.org/1999/02/22-rdf-syntax-ns#"
   xmlns:svg="http://www.w3.org/2000/svg"
   xmlns="http://www.w3.org/2000/svg"
   viewBox="0 0 300 123.38983"
   version="1.1"
   id="svg21067"
   height="123.38983"
   width="300">
  <defs
     id="defs21069" />
  <metadata
     id="metadata21072">
    <rdf:RDF>
      <cc:Work
         rdf:about="">
        <dc:format>image/svg+xml</dc:format>
        <dc:type
           rdf:resource="http://purl.org/dc/dcmitype/StillImage" />
        <dc:title></dc:title>
      </cc:Work>
    </rdf:RDF>
  </metadata>
  <g
     transform="translate(981.42868,-290.66721)"
     id="layer1">
    <g
       transform="matrix(2.259887,0,0,2.259887,-3408.628,-2661.3538)"
       id="g21020">
      <path
         id="path13044"
         style="fill:#000000;fill-opacity:1;fill-rule:nonzero;stroke:none"
         d="m 1126.5357,1320.6693 c -3.3,0 -5.55,-2.25 -5.55,-6.3 0,-4.35 2.55,-6.6 5.7,-6.6 1.5,0 2.7,0.45 3.75,1.05 l -0.45,2.85 c -1.05,-0.9 -1.95,-1.2 -3.15,-1.2 -1.65,0 -2.85,1.35 -2.85,3.75 0,2.55 1.2,3.9 3,3.9 1.05,0 1.95,-0.3 3.15,-1.2 l 0.3,2.55 c -1.2,0.9 -2.4,1.2 -3.9,1.2" />
      <path
         id="path13046"
         style="fill:#000000;fill-opacity:1;fill-rule:nonzero;stroke:none"
         d="m 1137.1857,1320.8193 c -3.15,0 -5.55,-2.55 -5.55,-6.6 0,-4.05 2.4,-6.45 5.55,-6.45 3.3,0 5.55,2.4 5.55,6.45 0,4.05 -2.25,6.6 -5.55,6.6 z m 0,-10.5 c -1.8,0 -2.7,1.65 -2.7,3.9 0,2.4 1.05,4.05 2.7,4.05 1.8,0 2.7,-1.65 2.7,-4.05 0,-2.25 -0.9,-3.9 -2.7,-3.9" />
      <path
         id="path13048"
         style="fill:#000000;fill-opacity:1;fill-rule:nonzero;stroke:none"
         d="m 1158.7857,1320.5193 0,-8.25 c 0,-1.05 -0.3,-1.8 -1.35,-1.8 -1.05,0 -1.8,0.6 -2.7,1.65 l 0,8.4 -3,0 0,-8.25 c 0,-1.05 -0.3,-1.8 -1.35,-1.8 -0.9,0 -1.8,0.6 -2.7,1.65 l 0,8.4 -3,0 0,-12.45 2.55,0 0.3,1.65 c 1.05,-1.05 2.25,-1.95 3.9,-1.95 1.65,0 2.55,0.75 3,1.95 1.05,-1.05 2.4,-1.95 4.05,-1.95 2.1,0 3.3,1.35 3.3,3.75 l 0,9 -3,0" />
      <path
         id="path13050"
         style="fill:#000000;fill-opacity:1;fill-rule:nonzero;stroke:none"
         d="m 1178.5857,1320.5193 0,-8.25 c 0,-1.05 -0.3,-1.8 -1.5,-1.8 -0.9,0 -1.65,0.6 -2.55,1.65 l 0,8.4 -3,0 0,-8.25 c 0,-1.05 -0.3,-1.8 -1.5,-1.8 -0.9,0 -1.65,0.6 -2.55,1.65 l 0,8.4 -3,0 0,-12.45 2.55,0 0.3,1.65 c 1.05,-1.05 2.25,-1.95 3.9,-1.95 1.65,0 2.55,0.75 3,1.95 1.05,-1.05 2.4,-1.95 3.9,-1.95 2.25,0 3.45,1.35 3.45,3.75 l 0,9 -3,0" />
      <path
         id="path13052"
         style="fill:#000000;fill-opacity:1;fill-rule:nonzero;stroke:none"
         d="m 1189.2357,1320.8193 c -3.15,0 -5.55,-2.55 -5.55,-6.6 0,-4.05 2.4,-6.45 5.55,-6.45 3.3,0 5.7,2.4 5.7,6.45 0,4.05 -2.4,6.6 -5.7,6.6 z m 0,-10.5 c -1.65,0 -2.7,1.65 -2.7,3.9 0,2.4 1.05,4.05 2.7,4.05 1.8,0 2.7,-1.65 2.7,-4.05 0,-2.25 -0.9,-3.9 -2.7,-3.9" />
      <path
         id="path13054"
         style="fill:#000000;fill-opacity:1;fill-rule:nonzero;stroke:none"
         d="m 1203.9357,1320.5193 0,-8.25 c 0,-1.05 -0.45,-1.8 -1.5,-1.8 -1.05,0 -1.95,0.6 -2.7,1.65 l 0,8.4 -3,0 0,-12.45 2.55,0 0.3,1.65 c 1.05,-1.05 2.25,-1.95 3.9,-1.95 2.25,0 3.3,1.35 3.3,3.75 l 0,9 -2.85,0" />
      <path
         id="path13056"
         style="fill:#000000;fill-opacity:1;fill-rule:nonzero;stroke:none"
         d="m 1125.9357,1339.4193 c -1.65,0 -3.45,-0.6 -4.65,-1.2 l 0.45,-2.55 c 1.2,0.9 2.85,1.5 4.35,1.5 1.2,0 1.95,-0.6 1.95,-1.35 0,-0.9 -0.6,-1.2 -2.4,-1.8 -2.85,-0.75 -4.05,-1.65 -4.05,-3.9 0,-2.1 1.5,-3.6 4.35,-3.6 1.5,0 3,0.3 4.05,0.9 l -0.3,2.55 c -1.2,-0.75 -2.55,-1.2 -3.75,-1.2 -1.2,0 -1.65,0.45 -1.65,1.2 0,0.6 0.45,1.05 2.1,1.5 3.15,0.9 4.35,1.65 4.35,4.05 0,2.4 -1.65,3.9 -4.8,3.9" />
      <path
         id="path13058"
         style="fill:#000000;fill-opacity:1;fill-rule:nonzero;stroke:none"
         d="m 1142.5857,1333.5693 -7.65,0 c 0.15,2.4 1.35,3.45 3.15,3.45 1.5,0 2.85,-0.6 4.05,-1.5 l 0.45,2.4 c -1.35,0.9 -2.85,1.5 -4.8,1.5 -3.3,0 -5.85,-1.95 -5.85,-6.45 0,-4.05 2.4,-6.45 5.4,-6.45 3.6,0 5.25,2.7 5.25,6.3 0,0.3 0,0.6 0,0.75 z m -5.25,-4.95 c -1.2,0 -2.1,0.9 -2.4,3 l 4.8,0 c -0.3,-1.95 -1.05,-3 -2.4,-3" />
      <path
         id="path13060"
         style="fill:#000000;fill-opacity:1;fill-rule:nonzero;stroke:none"
         d="m 1151.8857,1339.1193 0,-8.1 c 0,-1.05 -0.45,-1.8 -1.5,-1.8 -0.9,0 -1.8,0.6 -2.7,1.5 l 0,8.4 -2.85,0 0,-12.45 2.4,0 0.3,1.8 c 1.05,-1.05 2.4,-1.95 3.9,-1.95 2.25,0 3.45,1.35 3.45,3.75 l 0,8.85 -3,0" />
      <path
         id="path13062"
         style="fill:#000000;fill-opacity:1;fill-rule:nonzero;stroke:none"
         d="m 1161.3357,1339.4193 c -1.65,0 -3.45,-0.6 -4.65,-1.2 l 0.45,-2.55 c 1.2,0.9 2.85,1.5 4.35,1.5 1.2,0 1.95,-0.6 1.95,-1.35 0,-0.9 -0.6,-1.2 -2.4,-1.8 -2.85,-0.75 -4.05,-1.65 -4.05,-3.9 0,-2.1 1.5,-3.6 4.35,-3.6 1.5,0 2.85,0.3 4.05,0.9 l -0.3,2.55 c -1.2,-0.75 -2.55,-1.2 -3.75,-1.2 -1.2,0 -1.65,0.45 -1.65,1.2 0,0.6 0.45,1.05 2.1,1.5 3.15,0.9 4.35,1.65 4.35,4.05 0,2.4 -1.65,3.9 -4.8,3.9" />
      <path
         id="path13064"
         style="fill:#000000;fill-opacity:1;fill-rule:nonzero;stroke:none"
         d="m 1177.8357,1333.5693 -7.5,0 c 0.15,2.4 1.35,3.45 3.15,3.45 1.5,0 2.85,-0.6 4.05,-1.5 l 0.3,2.4 c -1.2,0.9 -2.7,1.5 -4.65,1.5 -3.3,0 -5.85,-1.95 -5.85,-6.45 0,-4.05 2.4,-6.45 5.4,-6.45 3.6,0 5.25,2.7 5.25,6.3 0,0.3 -0.15,0.6 -0.15,0.75 z m -5.1,-4.95 c -1.2,0 -2.1,0.9 -2.4,3 l 4.8,0 c -0.3,-1.95 -1.05,-3 -2.4,-3" />
      <path
         id="path13066"
         style="fill:#2ea548;fill-opacity:1;fill-rule:nonzero;stroke:none"
         d="m 1105.0857,1324.5693 c -0.3,3.15 -1.5,6.3 -4.05,8.7 -2.55,2.55 -5.85,3.9 -9.45,3.9 -3.6,0 -7.05,-1.35 -9.6,-3.9 -2.55,-2.55 -3.9,-6 -3.9,-9.6 0,-3.6 1.35,-6.9 3.9,-9.45 2.55,-2.55 6,-4.05 9.6,-4.05 3.6,0 6.9,1.5 9.45,4.05 0.45,0.45 0.9,0.9 1.35,1.35 l 2.55,-3.15 c -0.3,-0.3 -0.6,-0.75 -1.05,-1.05 -3.3,-3.3 -7.65,-5.1 -12.3,-5.1 -4.65,0 -9.15,1.8 -12.45,5.1 -3.3,3.3 -5.1,7.65 -5.1,12.3 0,4.65 1.8,9.15 5.1,12.45 3.3,3.3 7.8,5.1 12.45,5.1 4.65,0 9,-1.8 12.3,-5.1 4.35,-4.35 5.85,-10.35 4.8,-15.9 l -3.6,4.35" />
      <path
         id="path13068"
         style="fill:#000000;fill-opacity:1;fill-rule:nonzero;stroke:none"
         d="m 1093.2357,1331.3193 0,0 c -3,0 -4.8,-1.95 -5.1,-2.4 l -4.8,-4.95 c -0.75,-0.75 -0.75,-1.95 0,-2.55 0.75,-0.75 1.95,-0.75 2.7,0 l 4.8,5.1 0,0 c 0,0 1.05,1.05 2.4,1.05 1.2,0 2.4,-0.75 3.6,-2.1 l 13.65,-16.5 c 0.6,-0.75 1.8,-0.9 2.55,-0.3 0.9,0.75 0.9,1.8 0.3,2.7 l -13.8,16.65 c -1.95,2.1 -4.05,3.3 -6.3,3.3" />
      <path
         id="path13070"
         style="fill:#000000;fill-opacity:1;fill-rule:nonzero;stroke:none"
         d="m 1138.6857,1360.5693 0,-7.8 c 0,-2.25 -0.9,-3.6 -3.3,-3.6 -1.5,0 -2.7,0.9 -4.2,2.1 -0.3,-1.35 -1.35,-2.1 -3.15,-2.1 -1.35,0 -2.55,0.75 -3.9,1.95 l -0.3,-1.65 -0.9,0 0,11.1 1.2,0 0,-8.4 c 1.35,-1.2 2.7,-1.95 3.9,-1.95 1.5,0 2.25,0.9 2.25,2.7 l 0,7.65 1.2,0 0,-8.4 c 1.35,-1.2 2.55,-1.95 3.75,-1.95 1.65,0 2.4,0.9 2.4,2.7 l 0,7.65" />
      <path
         id="path13072"
         style="fill:#000000;fill-opacity:1;fill-rule:nonzero;stroke:none"
         d="m 1150.8357,1354.8693 c 0,-3.15 -1.35,-5.7 -4.2,-5.7 -2.85,0 -4.8,2.25 -4.8,5.85 0,3.6 1.95,5.85 4.95,5.85 1.5,0 3,-0.75 4.05,-1.65 l -0.15,-1.05 c -1.05,1.05 -2.55,1.8 -3.9,1.8 -2.55,0 -3.9,-2.1 -3.9,-4.95 l 7.95,0 0,-0.15 z m -1.2,-0.75 -6.6,0 c 0.3,-2.4 1.35,-3.9 3.6,-3.9 1.95,0 3,1.65 3,3.9" />
      <path
         id="path13074"
         style="fill:#000000;fill-opacity:1;fill-rule:nonzero;stroke:none"
         d="m 1162.6857,1360.5693 0,-16.95 -1.2,0.3 0,6 c -0.9,-0.45 -1.8,-0.6 -3,-0.6 -2.7,0 -5.1,1.95 -5.1,6 0,3.75 2.1,5.55 4.5,5.55 1.65,0 2.7,-0.9 3.6,-1.95 l 0.3,1.65 0.9,0 z m -1.2,-2.7 c -1.05,1.2 -2.1,1.95 -3.45,1.95 -2.1,0 -3.45,-1.65 -3.45,-4.5 0,-3.45 1.8,-5.1 3.9,-5.1 1.2,0 2.1,0.3 3,0.75" />
      <path
         id="path13076"
         style="fill:#000000;fill-opacity:1;fill-rule:nonzero;stroke:none"
         d="m 1168.2357,1345.4193 c 0,-0.45 -0.45,-0.9 -0.9,-0.9 -0.6,0 -1.05,0.45 -1.05,0.9 0,0.6 0.45,1.05 1.05,1.05 0.45,0 0.9,-0.45 0.9,-1.05 z m -0.45,15.15 0,-11.1 -1.05,0 0,11.1" />
      <path
         id="path13078"
         style="fill:#000000;fill-opacity:1;fill-rule:nonzero;stroke:none"
         d="m 1179.4857,1360.5693 0,-7.95 c 0,-2.25 -1.2,-3.45 -3.45,-3.45 -1.5,0 -2.7,0.45 -4.05,1.05 l 0.15,1.05 c 1.2,-0.6 2.55,-1.05 3.9,-1.05 1.5,0 2.4,0.75 2.4,2.4 l 0,0.9 c -5.4,0.6 -7.2,1.95 -7.2,4.35 0,2.1 1.5,3 3.3,3 1.35,0 2.85,-0.75 3.9,-1.8 l 0.3,1.5 0.75,0 z m -1.05,-2.4 c -1.2,1.05 -2.7,1.8 -3.9,1.8 -1.2,0 -2.25,-0.75 -2.25,-2.1 0,-1.95 1.5,-2.85 6.15,-3.3" />
    </g>
  </g>
</svg>
